RBDS026runT45_grf
version=1
nRows=27
nColumns=19
inDegrees=no
endheader
time	ground_force_r_vx	ground_force_r_vy	ground_force_r_vz	ground_force_r_px	ground_force_r_py	ground_force_r_pz	ground_force_r_mx	ground_force_r_my	ground_force_r_mz	ground_force_l_vx	ground_force_l_vy	ground_force_l_vz	ground_force_l_px	ground_force_l_py	ground_force_l_pz	ground_force_l_mx	ground_force_l_my	ground_force_l_mz
      0.00000000	      0.00000000	      0.00000000	      0.00000000	      0.00000000	      0.00000000	      0.00000000	      0.00000000	      0.00000000	      0.00000000	   -174.81997430	   2384.88580225	     -3.49683364	      1.95360837	      0.00000000	      0.95688460	      0.00000000	     38.70373799	     -0.00000000
      0.00100000	      0.00000000	      0.00000000	      0.00000000	      0.00000000	      0.00000000	      0.00000000	      0.00000000	      0.00000000	      0.00000000	   -161.78563084	   2371.65580586	     -1.93322248	      1.95103696	      0.00000000	      0.95693590	     -0.00000000	     37.56052202	     -0.00000000
      0.00200000	      0.00000000	      0.00000000	      0.00000000	      0.00000000	      0.00000000	      0.00000000	      0.00000000	      0.00000000	      0.00000000	   -148.75128738	   2358.42580948	     -0.36961132	      1.94846555	      0.00000000	      0.95698719	     -0.00000000	     36.41730604	     -0.00000000
      0.00300000	      0.00000000	      0.00000000	      0.00000000	      0.00000000	      0.00000000	      0.00000000	      0.00000000	      0.00000000	      0.00000000	   -135.71694392	   2345.19581309	      1.19399983	      1.94589414	      0.00000000	      0.95703849	     -0.00000000	     35.27409007	     -0.00000000
      0.00400000	      0.00000000	      0.00000000	      0.00000000	      0.00000000	      0.00000000	      0.00000000	      0.00000000	      0.00000000	      0.00000000	   -122.68199743	   2331.84057072	      2.69925335	      1.94327253	      0.00000000	      0.95709485	     -0.00000000	     34.14819098	     -0.00000000
      0.00500000	      0.00000000	      0.00000000	      0.00000000	      0.00000000	      0.00000000	      0.00000000	      0.00000000	      0.00000000	      0.00000000	   -109.64674942	   2318.42270534	      4.17532804	      1.94062582	      0.00000000	      0.95715375	     -0.00000000	     33.03095032	     -0.00000000
      0.00600000	      0.00000000	      0.00000000	      0.00000000	      0.00000000	      0.00000000	      0.00000000	      0.00000000	      0.00000000	      0.00000000	    -96.61150141	   2305.00483997	      5.65140274	      1.93797911	      0.00000000	      0.95721265	     -0.00000000	     31.91370967	     -0.00000000
      0.00700000	      0.00000000	      0.00000000	      0.00000000	      0.00000000	      0.00000000	      0.00000000	      0.00000000	      0.00000000	      0.00000000	    -83.61355404	   2291.46698418	      7.08246421	      1.93529854	      0.00000000	      0.95727469	     -0.00000000	     30.81122613	     -0.00000000
      0.00800000	      0.00000000	      0.00000000	      0.00000000	      0.00000000	      0.00000000	      0.00000000	      0.00000000	      0.00000000	      0.00000000	    -70.69020796	   2277.68914756	      8.42349924	      1.93255024	      0.00000000	      0.95734301	     -0.00000000	     29.73825680	     -0.00000000
      0.00900000	      0.00000000	      0.00000000	      0.00000000	      0.00000000	      0.00000000	      0.00000000	      0.00000000	      0.00000000	      0.00000000	    -57.76686188	   2263.91131093	      9.76453427	      1.92980194	      0.00000000	      0.95741132	     -0.00000000	     28.66528748	     -0.00000000
      0.01000000	      0.00000000	      0.00000000	      0.00000000	      0.00000000	      0.00000000	      0.00000000	      0.00000000	      0.00000000	      0.00000000	    -44.84351579	   2250.13347431	     11.10556929	      1.92705364	      0.00000000	      0.95747964	     -0.00000000	     27.59231815	     -0.00000000
      0.01100000	      0.00000000	      0.00000000	      0.00000000	      0.00000000	      0.00000000	      0.00000000	      0.00000000	      0.00000000	      0.00000000	    -32.14759943	   2235.81437030	     12.26950343	      1.92417946	      0.00000000	      0.95755878	     -0.00000000	     26.57994059	     -0.00000000
      0.01200000	      0.00000000	      0.00000000	      0.00000000	      0.00000000	      0.00000000	      0.00000000	      0.00000000	      0.00000000	      0.00000000	    -19.45168308	   2221.49526628	     13.43343757	      1.92130528	      0.00000000	      0.95763791	     -0.00000000	     25.56756302	     -0.00000000
      0.01300000	      0.00000000	      0.00000000	      0.00000000	      0.00000000	      0.00000000	      0.00000000	      0.00000000	      0.00000000	      0.00000000	     -6.75576672	   2207.17616227	     14.59737171	      1.91843110	      0.00000000	      0.95771705	     -0.00000000	     24.55518546	     -0.00000000
      0.01400000	      0.00000000	      0.00000000	      0.00000000	      0.00000000	      0.00000000	      0.00000000	      0.00000000	      0.00000000	      0.00000000	      5.71052395	   2192.37442072	     15.62021089	      1.91545930	      0.00000000	      0.95780397	     -0.00000000	     23.59231453	     -0.00000000
      0.01500000	      0.00000000	      0.00000000	      0.00000000	      0.00000000	      0.00000000	      0.00000000	      0.00000000	      0.00000000	      0.00000000	     18.06200177	   2177.33136040	     16.57250258	      1.91243869	      0.00000000	      0.95789478	     -0.00000000	     22.65419693	     -0.00000000
      0.01600000	      0.00000000	      0.00000000	      0.00000000	      0.00000000	      0.00000000	      0.00000000	      0.00000000	      0.00000000	      0.00000000	     30.41347960	   2162.28830008	     17.52479427	      1.90941808	      0.00000000	      0.95798559	     -0.00000000	     21.71607933	     -0.00000000
      0.01700000	      0.00000000	      0.00000000	      0.00000000	      0.00000000	      0.00000000	      0.00000000	      0.00000000	      0.00000000	      0.00000000	     42.61108050	   2146.94522349	     18.39804697	      1.90634359	      0.00000000	      0.95808036	     -0.00000000	     20.80622403	     -0.00000000
      0.01800000	      0.00000000	      0.00000000	      0.00000000	      0.00000000	      0.00000000	      0.00000000	      0.00000000	      0.00000000	      0.00000000	     54.50092757	   2131.00211437	     19.11322169	      1.90316133	      0.00000000	      0.95818306	     -0.00000000	     19.95289335	     -0.00000000
      0.01900000	      0.00000000	      0.00000000	      0.00000000	      0.00000000	      0.00000000	      0.00000000	      0.00000000	      0.00000000	      0.00000000	     66.39077465	   2115.05900525	     19.82839640	      1.89997908	      0.00000000	      0.95828577	     -0.00000000	     19.09956268	     -0.00000000
      0.02000000	      0.00000000	      0.00000000	      0.00000000	      0.00000000	      0.00000000	      0.00000000	      0.00000000	      0.00000000	      0.00000000	     78.28062172	   2099.11589613	     20.54357112	      1.89679683	      0.00000000	      0.95838847	     -0.00000000	     18.24623200	     -0.00000000
      0.02100000	      0.00000000	      0.00000000	      0.00000000	      0.00000000	      0.00000000	      0.00000000	      0.00000000	      0.00000000	      0.00000000	     89.59287227	   2082.11110728	     21.00619667	      1.89344440	      0.00000000	      0.95850256	     -0.00000000	     17.48478991	     -0.00000000
      0.02200000	      0.00000000	      0.00000000	      0.00000000	      0.00000000	      0.00000000	      0.00000000	      0.00000000	      0.00000000	      0.00000000	    100.90512283	   2065.10631843	     21.46882223	      1.89009196	      0.00000000	      0.95861666	      0.00000000	     16.72334781	     -0.00000000
      0.02300000	      0.00000000	      0.00000000	      0.00000000	      0.00000000	      0.00000000	      0.00000000	      0.00000000	      0.00000000	      0.00000000	    112.21737339	   2048.10152958	     21.93144778	      1.88673953	      0.00000000	      0.95873075	      0.00000000	     15.96190572	     -0.00000000
      0.02400000	      0.00000000	      0.00000000	      0.00000000	      0.00000000	      0.00000000	      0.00000000	      0.00000000	      0.00000000	      0.00000000	    123.06911825	   2030.29580126	     22.22238622	      1.88327313	      0.00000000	      0.95885159	      0.00000000	     15.26412036	     -0.00000000
      0.02500000	      0.00000000	      0.00000000	      0.00000000	      0.00000000	      0.00000000	      0.00000000	      0.00000000	      0.00000000	      0.00000000	    133.69061027	   2012.08960319	     22.42748110	      1.87974973	      0.00000000	      0.95897580	      0.00000000	     14.59816336	     -0.00000000
      0.02600000	      0.00000000	      0.00000000	      0.00000000	      0.00000000	      0.00000000	      0.00000000	      0.00000000	      0.00000000	      0.00000000	    144.31210229	   1993.88340513	     22.63257597	      1.87622634	      0.00000000	      0.95910001	      0.00000000	     13.93220637	     -0.00000000
